<svg xmlns="http://www.w3.org/2000/svg" viewBox="0 0 30 30"><path d="M24.8 7c0 1-.8 1.8-1.8 1.8S21.2 8 21.2 7 22 5.2 23 5.2s1.8.8 1.8 1.8zM15 20c-2.8 0-5-2.2-5-5s2.2-5 5-5 5 2.2 5 5-2.2 5-5 5zm0-12.7c-4.3 0-7.7 3.4-7.7 7.7s3.4 7.7 7.7 7.7 7.7-3.4 7.7-7.7-3.4-7.7-7.7-7.7zm0-4.6c4 0 4.5 0 6.1.1 1.5.1 2.3.3 2.8.5.7.3 1.2.6 1.7 1.1.5.5.8 1 1.1 1.7.2.5.4 1.3.5 2.8.1 1.6.1 2.1.1 6.1s0 4.5-.1 6.1c-.1 1.5-.3 2.3-.5 2.8-.3.7-.6 1.2-1.1 1.7-.5.5-1 .8-1.7 1.1-.5.2-1.3.4-2.8.5-1.6.1-2.1.1-6.1.1s-4.5 0-6.1-.1c-1.5-.1-2.3-.3-2.8-.5-.7-.3-1.2-.6-1.7-1.1-.5-.5-.8-1-1.1-1.7-.2-.5-.4-1.3-.5-2.8-.1-1.6-.1-2.1-.1-6.1s0-4.5.1-6.1c.1-1.5.3-2.3.5-2.8.3-.6.6-1.1 1.1-1.7.5-.5 1-.8 1.7-1.1.5-.2 1.3-.4 2.8-.5 1.6-.1 2.1-.1 6.1-.1zM15 0c-4.1 0-4.6 0-6.2.1S6.1.4 5.2.8c-1 .4-1.8.9-2.6 1.7S1.2 4.2.8 5.2c-.4 1-.6 2-.7 3.6S0 10.9 0 15s0 4.6.1 6.2c.1 1.6.3 2.7.7 3.6.4 1 .9 1.8 1.7 2.6s1.7 1.3 2.6 1.7c1 .4 2 .6 3.6.7 1.7.2 2.2.2 6.3.2s4.6 0 6.2-.1c1.6-.1 2.7-.3 3.6-.7 1-.4 1.8-.9 2.6-1.7.8-.8 1.3-1.7 1.7-2.6.4-1 .6-2 .7-3.6.2-1.7.2-2.2.2-6.3s0-4.6-.1-6.2c-.1-1.6-.3-2.7-.7-3.6-.4-1-.9-1.8-1.7-2.6-.8-.8-1.7-1.3-2.6-1.7-1-.4-2-.6-3.6-.7C19.6 0 19.1 0 15 0z"/></svg>