<?xml version="1.0" encoding="utf-8"?>
<!-- Generator: Adobe Illustrator 23.0.3, SVG Export Plug-In . SVG Version: 6.00 Build 0)  -->
<svg version="1.1" id="Layer_1" xmlns="http://www.w3.org/2000/svg" xmlns:xlink="http://www.w3.org/1999/xlink" x="0px" y="0px"
	 viewBox="0 0 30 58.9" style="enable-background:new 0 0 30 58.9;" xml:space="preserve">
<path id="facebook" d="M19.8,58.8c-0.3,0-0.5,0-0.7,0c-4,0-8,0-12,0c-0.6,0-0.7-0.2-0.7-0.7c0-9.3,0-18.6,0-27.9c0-0.2,0-0.5,0-0.8
	c-2.2,0-4.3,0-6.4,0c0-3.3,0-6.6,0-9.9c0.2,0,0.4,0,0.6,0c1.8,0,3.5,0,5.3,0c0.4,0,0.6-0.1,0.6-0.6c0-2.6,0-5.2,0-7.8
	c0-1.8,0.3-3.6,1.1-5.2c1.2-2.3,3.1-3.8,5.5-4.8c2-0.8,4-1.1,6.1-1.1c3.4,0,6.8,0,10.2,0C29.7,0,30,0,30,0.4c0,3.2,0,6.4,0,9.6
	c0,0,0,0.1-0.1,0.2c-0.2,0-0.4,0-0.6,0c-2.1,0-4.2,0-6.3,0c-1.2,0-2.2,0.5-2.8,1.6c-0.2,0.3-0.3,0.7-0.3,1.1c0,2,0,4,0,6
	c0,0.5,0.1,0.6,0.6,0.6c2.9,0,5.8,0,8.8,0c0.2,0,0.5,0,0.9,0c-0.4,3.3-0.8,6.6-1.2,9.9c-3,0-6,0-9,0C19.8,39.2,19.8,49,19.8,58.8z"
	/>
</svg>
